<svg id="Camada_1" data-name="Camada 1" xmlns="http://www.w3.org/2000/svg" viewBox="0 0 1417.32 1417.32"><defs><style>.cls-1{fill:#001328;}.cls-2{fill:#69b42e;}</style></defs><path class="cls-1" d="M115.25,708.39c0-40.17,29.31-73,78.7-73a83.53,83.53,0,0,1,42.34,11.67c6.52,3.8,7.33,10,2.72,16l-3.26,4.07c-4.34,6-9.23,6.24-16,3a55.11,55.11,0,0,0-23.89-5.43c-26.32,0-45.59,17.65-45.59,42.61,0,25.25,19.27,42.89,45.59,42.89a59.59,59.59,0,0,0,23.89-5.43c6.78-3.26,11.94-3,16,2.71l3.26,4.34c4.34,6,3,13-6,17.65A81.3,81.3,0,0,1,194,779.23C145.64,779.23,115.25,747.74,115.25,708.39Z"/><path class="cls-1" d="M256.11,707.3c0-40.16,27.41-71.92,67.3-71.92,16.2,0,31.32,5.39,42.68,18.45a2.29,2.29,0,0,0,4-1.5h0a14,14,0,0,1,13.95-14h7.1a14,14,0,0,1,14,14V762.55a13.69,13.69,0,0,1-13.69,13.69h-7.64a13.68,13.68,0,0,1-13.68-13.69v-.27a2.29,2.29,0,0,0-4-1.51c-11.36,13.07-26.48,18.46-42.68,18.46C283.52,779.23,256.11,747.47,256.11,707.3Zm114.53,0c-.27-24.69-16.29-42.88-40.44-42.88-24.7,0-39.08,19.54-39.08,42.88,0,23.62,14.38,42.89,39.08,42.89C354.35,750.19,370.37,732,370.64,707.3Z"/><path class="cls-1" d="M440.11,762.55V593.7A13.68,13.68,0,0,1,453.8,580h7.64a13.67,13.67,0,0,1,13.68,13.68V762.55a13.68,13.68,0,0,1-13.68,13.69H453.8A13.69,13.69,0,0,1,440.11,762.55Z"/><path class="cls-1" d="M501.18,707.3c0-40.16,27.41-71.92,67.31-71.92,16.19,0,31.31,5.39,42.67,18.45a2.29,2.29,0,0,0,4-1.5h0a14,14,0,0,1,14-14h7.09a14,14,0,0,1,14,14V762.55a13.69,13.69,0,0,1-13.69,13.69h-7.64a13.69,13.69,0,0,1-13.68-13.69v-.27a2.29,2.29,0,0,0-4-1.51c-11.36,13.07-26.48,18.46-42.67,18.46C528.59,779.23,501.18,747.47,501.18,707.3Zm114.53,0c-.27-24.69-16.28-42.88-40.44-42.88-24.7,0-39.08,19.54-39.08,42.88,0,23.62,14.38,42.89,39.08,42.89C599.43,750.19,615.44,732,615.71,707.3Z"/><path class="cls-1" d="M684.64,762.55V652.33a14,14,0,0,1,14-14h7.1a14,14,0,0,1,13.95,14v.74a2.29,2.29,0,0,0,4.22,1.23c7.92-12.11,22-18.92,39.48-18.92,33.66,0,51.57,24.43,51.57,62.15v65a13.69,13.69,0,0,1-13.69,13.69h-7.64a13.68,13.68,0,0,1-13.68-13.69V699.16c0-23.61-10.32-34.47-24.7-34.47-14.11,0-35.56,10.59-35.56,44.24v53.62A13.68,13.68,0,0,1,706,776.24h-7.64A13.69,13.69,0,0,1,684.64,762.55Z"/><path class="cls-1" d="M859.42,826.72c-6.24-3.53-7.32-9.23-4.07-15.74l2.72-4.88c3.8-6.79,8.95-7.88,15.47-4.08a71.87,71.87,0,0,0,36.64,9.77c25,0,42.34-13.84,42.34-42.06v-7.38a2.29,2.29,0,0,0-4-1.5c-11.26,13-26.78,18.38-43,18.38-39.89,0-67-32.3-67-71.93,0-39.35,27.14-71.92,67-71.92,16.16,0,31.46,5.36,42.67,18.36a2.28,2.28,0,0,0,4-1.5v-3c0-7.05,4.08-10.85,11.4-10.85H973a13.68,13.68,0,0,1,13.68,13.68V770c0,49.67-34.74,70-74.63,70C889.55,840,873,834.59,859.42,826.72ZM952.79,707.3c-.27-24.69-16.29-43.15-40.44-43.15-24.7,0-39.08,19.81-39.08,43.15,0,23.62,14.38,43.16,39.08,43.16C936.5,750.46,952.52,732,952.79,707.3Z"/><path class="cls-2" d="M1015.75,757.24c0-12.48,10-22.25,23.34-22.25,13,0,23.34,9.77,23.34,22.25s-10.31,22-23.34,22C1025.79,779.23,1015.75,769.73,1015.75,757.24Z"/><path class="cls-1" d="M1087.67,597.66c0-11.4,8.41-20.36,22-20.36s22.26,9,22.26,20.36S1123,618,1109.65,618,1087.67,609.06,1087.67,597.66Zm4.61,164.89V652.33a14,14,0,0,1,14-14h7.37a13.69,13.69,0,0,1,13.68,13.68v110.5a13.69,13.69,0,0,1-13.68,13.69H1106A13.69,13.69,0,0,1,1092.28,762.55Z"/><path class="cls-1" d="M1153.07,707.3c0-39.62,32.3-71.92,74.37-71.92s74.64,32.57,74.64,71.92c0,39.9-32.57,71.93-74.64,71.93S1153.07,747.2,1153.07,707.3Zm115.08.28c0-23.89-17.91-42.89-40.71-42.89s-40.71,19-40.71,42.89c0,23.61,17.91,42.33,40.71,42.33S1268.15,731.19,1268.15,707.58Z"/></svg>