<svg id="Camada_1" data-name="Camada 1" xmlns="http://www.w3.org/2000/svg" viewBox="0 0 1417.32 1417.32"><defs><style>.cls-1{fill:#69b42e;}</style></defs><path class="cls-1" d="M743,395.49a60.24,60.24,0,0,0-69.26,96.25h-.1c8,8.74,12.09,9.13,17.25,19.81a194.35,194.35,0,0,1,18.58,67.4c.58,6.58,2.54,15.09,9.12,15.68,7.89,1.62,10.57-28.71,11.6-43.8,1.19-17.35,14.73-38.07,23.49-53.1h-.08A60.2,60.2,0,0,0,743,395.49Z"/><path class="cls-1" d="M951.32,661a81.91,81.91,0,0,0,73.76-46.51h0a81.67,81.67,0,1,0-152.29-13.33l-.2-.08c3.34,9.5,4.1,15,2.49,20.86-1,3.56-7.76,9.85-13.87,16.48l-26,22.08A12.23,12.23,0,0,0,851,679.18l32.29-27.41c12.5-8.4,27-.74,39.46,4l-.08-.07A81,81,0,0,0,951.32,661Zm-35-98.48a38.87,38.87,0,0,1,70.15,33.52h0a38.87,38.87,0,1,1-70.14-33.52Z"/><path class="cls-1" d="M1027.25,757.87a60.27,60.27,0,0,0-80.37,28.39c-4.68,6.62-7.71,11.46-12.39,18.07-2.27,3.21-4.6,6.58-5.19,10.47-1.38,9.23,7.2,16.6,14.85,22,4.33,3,5.24,7.09,8.1,10.57a60.27,60.27,0,1,0,75-89.45Z"/><path class="cls-1" d="M731.8,594.49C724.06,598,720.3,608.34,724,616c4.9,7.08,12.7,12.09,20.52,8.47s12-13.79,8.64-21.71S739.54,591,731.8,594.49Z"/><path class="cls-1" d="M701.83,600.89c-3.38-.09-6.3,2.34-8.4,5s-3.76,5.9-3.4,9.25,3.44,6.53,6.77,6c6.18-1.48,8.2-3.51,10.89-8.17S707.2,601,701.83,600.89Z"/><path class="cls-1" d="M708.66,170C411.64,170,170,411.64,170,708.66s241.63,538.66,538.65,538.66,538.66-241.64,538.66-538.66S1005.68,170,708.66,170ZM805.13,1170.9c0-.13,0-.27,0-.4-4.7-53.6-46-320,4-333.93,20-4.56,47.66-.83,78-2.64,8.36-.5,18.9-2.92,20.26-11.18s-8.12-14-16-17.38c-31.12-13.26-65.67-14.56-74.86-57.58v0c-.58-2.27-1.3-4.51-2-6.74l.1,0a16.08,16.08,0,0,1-.75-2.22h0c-2.8-9,1.1-21.5,3.7-26.43,4.59-8.68,8.3-7.19,12.28-17.43,3.7-9.51-7.21-24.07-15.77-17-2.24,1.86-9.51,6-14.46,8.57C789.3,692,780,686.47,766.83,683c.33.2.62.45.94.65-1.18-.67-2.38-1.31-3.59-1.94h.26c-.49-.19-.89-.4-1.36-.6-.73-.36-1.39-.8-2.13-1.15-1.14-.54-2.31-.94-3.46-1.44-24.35-12.62-21.63-30.54-34.38-48.61-4.2-6-13.26-4.62-15.91,2.16-7.58,19.36-10.56,35.49-32.93,46.78-1.07.47-2.11,1-3.16,1.46l-.72.33c-10.49,3.88-13.91,3.76-23.69,1.73s-15.69-8.83-23.31-13.49l-52.72-47.1a7.79,7.79,0,0,0-1.46-1.69c-1.82-1.56-3.82-3.16-5.84-4.83l-6.43-5.75A37.08,37.08,0,0,1,548.57,598c-4.3-10-3.34-15.55-1-26.94a81.87,81.87,0,1,0-51.83,56.42c2.17-.76,4.26-1.66,6.33-2.59h0l0,0c1.69-.75,3.32-1.6,4.94-2.46,6-2.82,10.46-3.83,15.24-3.31s16.35,10.58,26.09,15.62l56.87,50.8c5.74,5.58,12.12,11.84,14.87,20.11,3.69,11.09,3.49,17.53-.36,30.57.08-.13.17-.23.25-.36-.08.19-.17.38-.24.58a1.7,1.7,0,0,1,0-.22C611.58,762.21,478.1,780,462.18,760.93V761a60.26,60.26,0,1,0,7.17,67v.13c11.05-17.88,33.33-20.78,57.16-25.37,18.45-3.56,37.2-6.95,55.92-5.32,18.24,1.58,28.63,7.24,40.25,20.92,22.71,68.65,30.56,297.06,29.19,354.84,0,1.34,0,2.72,0,4.1-233.69-28.13-415.44-227.5-415.44-468.65,0-260.36,211.82-472.18,472.18-472.18s472.18,211.82,472.18,472.18C1180.84,936,1019.38,1126.24,805.13,1170.9ZM503.61,567.18h0a38.87,38.87,0,1,1,1.58-29.71A38.58,38.58,0,0,1,503.61,567.18Z"/></svg>